<svg width="30" height="30" viewBox="0 0 30 30" fill="none" xmlns="http://www.w3.org/2000/svg">
<path d="M21.2063 0C18.9295 0 16.7759 0.88422 15.1647 2.45218C13.5502 0.88422 11.3956 0 9.11912 0C4.33649 0 0.449219 3.89003 0.449219 8.67486C0.449219 19.0061 14.0758 29.1977 14.6558 29.6281L15.1647 30L15.6696 29.6281C16.2499 29.1977 29.8796 19.0061 29.8796 8.67486C29.8796 3.89003 25.9886 0 21.2063 0ZM4.74645 16.5734L3.72241 14.7066C3.69476 14.6417 3.66438 14.5799 3.63707 14.5219C3.48995 14.2145 3.35341 13.9071 3.22711 13.5997C3.21721 13.5693 3.20322 13.5451 3.19639 13.5246C3.18649 13.5072 3.18 13.4867 3.17625 13.4699H3.17284L3.16908 13.4597C2.53452 11.8818 2.15596 10.2695 2.15596 8.67486C2.15596 4.83265 5.27895 1.70765 9.11912 1.70765C11.2112 1.70765 13.1743 2.63627 14.5056 4.25546L15.1647 5.0584L15.8235 4.25546C17.151 2.63627 19.1138 1.70765 21.2063 1.70765C25.0498 1.70765 28.1728 4.83265 28.1728 8.67486C28.1728 9.73361 28.0056 10.7992 27.7086 11.8545L27.7055 11.8576V11.8685C27.7025 11.8753 27.699 11.8887 27.6919 11.9054C27.4905 12.6229 27.2242 13.3367 26.9139 14.0441L26.0606 15.7517L25.6817 16.4071L26.0606 15.7517C25.9377 15.9699 25.811 16.1885 25.6817 16.4071C25.0809 17.418 24.4013 18.3986 23.6807 19.3344C23.6807 19.3378 23.6776 19.3408 23.6746 19.3439C20.4898 23.4939 16.5472 26.7695 15.1647 27.8624C13.5843 26.6124 8.67503 22.5277 5.36054 17.5376C5.11511 17.1687 4.87616 16.793 4.65087 16.4136" fill="white"/>
<path fill-rule="evenodd" clip-rule="evenodd" d="M21.9222 7.78388C22.1461 7.78161 22.3426 7.93277 22.3986 8.15021L23.7927 13.5688L24.2994 9.73613C24.3284 9.51658 24.5011 9.34411 24.7201 9.31592C24.9391 9.28773 25.1497 9.41089 25.233 9.61597L26.1539 11.8819H28.4727C28.7416 11.8819 28.9596 12.1006 28.9596 12.3703C28.9596 12.64 28.7416 12.8587 28.4727 12.8587H25.8266C25.6287 12.8587 25.4504 12.7385 25.3757 12.5546L25.0237 11.6885L24.4292 16.1852C24.3986 16.417 24.2085 16.5944 23.9759 16.6085C23.7432 16.6226 23.5333 16.4694 23.475 16.2431L21.9476 10.3065L21.2868 13.1079C21.2348 13.3282 21.0387 13.4838 20.813 13.4838H18.5621L17.6685 17.7496C17.6222 17.9708 17.4304 18.1313 17.2051 18.1373C16.9797 18.1434 16.7797 17.9936 16.7216 17.7751L15.3227 12.5194L14.9608 16.1694C14.9396 16.3832 14.7815 16.5581 14.5714 16.6C14.3612 16.642 14.1484 16.5413 14.0472 16.3519L12.5137 13.4838H8.83594C8.65951 13.4838 8.49689 13.3881 8.41085 13.2336L8.07057 12.6226L7.43792 17.0927C7.40545 17.322 7.2168 17.4969 6.98629 17.5114C6.75577 17.5259 6.54682 17.376 6.48605 17.1525L4.77962 10.8759L4.15872 13.7248C4.10985 13.9491 3.91188 14.1089 3.68303 14.1089H1.59453V13.1322H3.29105L4.25185 8.72361C4.29973 8.50392 4.49099 8.34542 4.71512 8.33969C4.93926 8.33395 5.13833 8.48247 5.19731 8.69942L6.80518 14.6135L7.30934 11.0514C7.33871 10.8439 7.49681 10.6783 7.70224 10.6399C7.90767 10.6015 8.11462 10.6989 8.21652 10.8819L9.12168 12.507H12.8051C12.9845 12.507 13.1494 12.606 13.2342 12.7646L14.1499 14.4773L14.6185 9.752C14.6417 9.51715 14.8291 9.33261 15.0637 9.31354C15.2982 9.29448 15.5128 9.44635 15.5734 9.67436L17.1356 15.5435L17.6904 12.895C17.7377 12.6689 17.9366 12.507 18.1669 12.507H20.4278L21.4533 8.1598C21.5048 7.94126 21.6983 7.78616 21.9222 7.78388Z" fill="white"/>
</svg>
