<svg width="134" height="14" viewBox="0 0 134 14" fill="none" xmlns="http://www.w3.org/2000/svg">
<path d="M8.94318 4.92574C8.84849 4.61892 8.7178 4.3443 8.55114 4.10187C8.38826 3.85566 8.19129 3.64543 7.96023 3.47119C7.73295 3.29695 7.47159 3.16627 7.17614 3.07915C6.88068 2.98824 6.55871 2.94278 6.21023 2.94278C5.58523 2.94278 5.02841 3.09998 4.53977 3.41437C4.05114 3.72877 3.66667 4.19089 3.38636 4.80074C3.10985 5.4068 2.97159 6.14543 2.97159 7.01665C2.97159 7.89543 3.10985 8.63975 3.38636 9.2496C3.66288 9.85945 4.04735 10.3235 4.53977 10.6416C5.0322 10.956 5.60417 11.1132 6.25568 11.1132C6.84659 11.1132 7.35795 10.9996 7.78977 10.7723C8.22538 10.5451 8.56061 10.2231 8.79545 9.80642C9.0303 9.38596 9.14773 8.89354 9.14773 8.32915L9.625 8.40301H6.46591V6.75528H11.1875V8.15301C11.1875 9.14922 10.9754 10.011 10.5511 10.7382C10.1269 11.4655 9.54356 12.0261 8.80114 12.4201C8.05871 12.8102 7.20644 13.0053 6.24432 13.0053C5.17235 13.0053 4.23106 12.7648 3.42045 12.2837C2.61364 11.7988 1.98295 11.1113 1.52841 10.2212C1.07765 9.32725 0.852273 8.26665 0.852273 7.03937C0.852273 6.09998 0.984848 5.26096 1.25 4.52233C1.51894 3.78369 1.89394 3.1568 2.375 2.64165C2.85606 2.12271 3.42045 1.72877 4.06818 1.45983C4.71591 1.1871 5.42045 1.05074 6.18182 1.05074C6.82576 1.05074 7.42614 1.14543 7.98295 1.33483C8.53977 1.52043 9.03409 1.78559 9.46591 2.13028C9.90152 2.47498 10.2595 2.88407 10.5398 3.35755C10.8201 3.83104 11.0038 4.35377 11.0909 4.92574H8.94318ZM16.0386 13.0166C15.1636 13.0166 14.4079 12.8348 13.7715 12.4712C13.139 12.1038 12.6522 11.5848 12.3113 10.9144C11.9704 10.2401 11.7999 9.44657 11.7999 8.53369C11.7999 7.63596 11.9704 6.84809 12.3113 6.17005C12.656 5.48824 13.1371 4.95793 13.7545 4.57915C14.3719 4.19657 15.0973 4.00528 15.9306 4.00528C16.4685 4.00528 16.9761 4.0924 17.4534 4.26665C17.9344 4.4371 18.3587 4.70225 18.7261 5.0621C19.0973 5.42195 19.389 5.88028 19.6011 6.4371C19.8132 6.99013 19.9193 7.64922 19.9193 8.41437V9.04505H12.7659V7.65869H17.9477C17.9439 7.26475 17.8587 6.91437 17.692 6.60755C17.5253 6.29695 17.2924 6.05263 16.9931 5.8746C16.6977 5.69657 16.353 5.60755 15.959 5.60755C15.5386 5.60755 15.1693 5.70983 14.8511 5.91437C14.5329 6.11513 14.2848 6.38028 14.1068 6.70983C13.9325 7.03559 13.8435 7.39354 13.8397 7.78369V8.99392C13.8397 9.50149 13.9325 9.9371 14.1181 10.3007C14.3037 10.6606 14.5632 10.9371 14.8965 11.1303C15.2299 11.3197 15.62 11.4144 16.067 11.4144C16.3662 11.4144 16.6371 11.3727 16.8795 11.2894C17.1219 11.2023 17.3321 11.0754 17.5102 10.9087C17.6882 10.742 17.8227 10.5356 17.9136 10.2894L19.834 10.5053C19.7128 11.0129 19.4818 11.456 19.1409 11.8348C18.8037 12.2098 18.3719 12.5015 17.8454 12.7098C17.3189 12.9144 16.7166 13.0166 16.0386 13.0166ZM27.597 6.42574L25.722 6.63028C25.669 6.44089 25.5762 6.26286 25.4436 6.09619C25.3148 5.92952 25.1406 5.79505 24.9209 5.69278C24.7012 5.59051 24.4323 5.53937 24.1141 5.53937C23.6861 5.53937 23.3262 5.63218 23.0345 5.81778C22.7467 6.00339 22.6046 6.24392 22.6084 6.53937C22.6046 6.79316 22.6974 6.9996 22.8868 7.15869C23.08 7.31778 23.3982 7.44846 23.8414 7.55074L25.33 7.86892C26.1558 8.04695 26.7694 8.32915 27.1709 8.71551C27.5762 9.10187 27.7808 9.60755 27.7845 10.2326C27.7808 10.7818 27.6198 11.2666 27.3016 11.6871C26.9872 12.1038 26.5497 12.4295 25.9891 12.6644C25.4285 12.8992 24.7845 13.0166 24.0573 13.0166C22.9891 13.0166 22.1292 12.7932 21.4777 12.3462C20.8262 11.8954 20.438 11.2685 20.313 10.4655L22.3186 10.2723C22.4095 10.6663 22.6027 10.9636 22.8982 11.1644C23.1936 11.3651 23.5781 11.4655 24.0516 11.4655C24.5402 11.4655 24.9323 11.3651 25.2277 11.1644C25.527 10.9636 25.6766 10.7155 25.6766 10.4201C25.6766 10.1701 25.58 9.96362 25.3868 9.80074C25.1974 9.63786 24.902 9.51286 24.5005 9.42574L23.0118 9.11324C22.1747 8.93899 21.5554 8.64543 21.1539 8.23255C20.7523 7.81589 20.5535 7.28937 20.5573 6.65301C20.5535 6.11513 20.6993 5.64922 20.9948 5.25528C21.294 4.85755 21.7088 4.55074 22.2391 4.33483C22.7732 4.11513 23.3887 4.00528 24.0857 4.00528C25.1084 4.00528 25.9133 4.22309 26.5005 4.65869C27.0914 5.0943 27.4569 5.68331 27.597 6.42574ZM32.8785 4.11892V5.70983H27.8615V4.11892H32.8785ZM29.1001 2.02801H31.1569V10.2212C31.1569 10.4977 31.1986 10.7098 31.2819 10.8576C31.3691 11.0015 31.4827 11.1 31.6228 11.153C31.763 11.206 31.9183 11.2326 32.0888 11.2326C32.2175 11.2326 32.335 11.2231 32.441 11.2041C32.5509 11.1852 32.6342 11.1682 32.691 11.153L33.0376 12.761C32.9278 12.7988 32.7706 12.8405 32.566 12.886C32.3653 12.9314 32.1191 12.9579 31.8274 12.9655C31.3122 12.9807 30.8482 12.903 30.4353 12.7326C30.0225 12.5583 29.6948 12.2894 29.4524 11.9257C29.2138 11.5621 29.0963 11.1076 29.1001 10.5621V2.02801ZM33.6387 12.8462V4.11892H35.6955V12.8462H33.6387ZM34.6728 2.88028C34.347 2.88028 34.0667 2.77233 33.8319 2.55642C33.597 2.33672 33.4796 2.07346 33.4796 1.76665C33.4796 1.45604 33.597 1.19278 33.8319 0.976872C34.0667 0.757176 34.347 0.647327 34.6728 0.647327C35.0023 0.647327 35.2826 0.757176 35.5137 0.976872C35.7485 1.19278 35.866 1.45604 35.866 1.76665C35.866 2.07346 35.7485 2.33672 35.5137 2.55642C35.2826 2.77233 35.0023 2.88028 34.6728 2.88028ZM40.6574 13.0166C39.8051 13.0166 39.0665 12.8291 38.4415 12.4541C37.8165 12.0791 37.3316 11.5545 36.9869 10.8803C36.646 10.206 36.4756 9.41816 36.4756 8.51665C36.4756 7.61513 36.646 6.82536 36.9869 6.14733C37.3316 5.4693 37.8165 4.94278 38.4415 4.56778C39.0665 4.19278 39.8051 4.00528 40.6574 4.00528C41.5097 4.00528 42.2483 4.19278 42.8733 4.56778C43.4983 4.94278 43.9813 5.4693 44.3222 6.14733C44.6669 6.82536 44.8392 7.61513 44.8392 8.51665C44.8392 9.41816 44.6669 10.206 44.3222 10.8803C43.9813 11.5545 43.4983 12.0791 42.8733 12.4541C42.2483 12.8291 41.5097 13.0166 40.6574 13.0166ZM40.6688 11.3689C41.1309 11.3689 41.5172 11.242 41.8278 10.9882C42.1384 10.7307 42.3695 10.386 42.521 9.95415C42.6763 9.52233 42.754 9.04127 42.754 8.51096C42.754 7.97687 42.6763 7.49392 42.521 7.0621C42.3695 6.62649 42.1384 6.2799 41.8278 6.02233C41.5172 5.76475 41.1309 5.63596 40.6688 5.63596C40.1953 5.63596 39.8013 5.76475 39.4869 6.02233C39.1763 6.2799 38.9434 6.62649 38.7881 7.0621C38.6366 7.49392 38.5608 7.97687 38.5608 8.51096C38.5608 9.04127 38.6366 9.52233 38.7881 9.95415C38.9434 10.386 39.1763 10.7307 39.4869 10.9882C39.8013 11.242 40.1953 11.3689 40.6688 11.3689ZM47.6818 7.73255V12.8462H45.6249V4.11892H47.5909V5.60187H47.6931C47.8939 5.11324 48.214 4.72498 48.6534 4.4371C49.0965 4.14922 49.6439 4.00528 50.2954 4.00528C50.8977 4.00528 51.4223 4.13407 51.8693 4.39165C52.32 4.64922 52.6685 5.02233 52.9147 5.51096C53.1647 5.9996 53.2878 6.5924 53.284 7.28937V12.8462H51.2272V7.60755C51.2272 7.02422 51.0757 6.56778 50.7727 6.23824C50.4734 5.90869 50.0587 5.74392 49.5284 5.74392C49.1685 5.74392 48.8484 5.82346 48.5681 5.98255C48.2916 6.13786 48.0738 6.36324 47.9147 6.65869C47.7594 6.95415 47.6818 7.3121 47.6818 7.73255ZM60.6623 12.9996C59.9767 12.9996 59.3631 12.8235 58.8214 12.4712C58.2798 12.1189 57.8517 11.6076 57.5373 10.9371C57.2229 10.2666 57.0657 9.45225 57.0657 8.49392C57.0657 7.52422 57.2248 6.70604 57.543 6.03937C57.865 5.36892 58.2987 4.86324 58.8441 4.52233C59.3896 4.17763 59.9976 4.00528 60.668 4.00528C61.1794 4.00528 61.5998 4.0924 61.9294 4.26665C62.2589 4.4371 62.5203 4.64354 62.7135 4.88596C62.9066 5.1246 63.0563 5.34998 63.1623 5.5621H63.2476V1.20983H65.3101V12.8462H63.2873V11.4712H63.1623C63.0563 11.6833 62.9029 11.9087 62.7021 12.1473C62.5013 12.3822 62.2362 12.5829 61.9066 12.7496C61.5771 12.9163 61.1623 12.9996 60.6623 12.9996ZM61.2362 11.3121C61.6718 11.3121 62.043 11.1947 62.3498 10.9598C62.6566 10.7212 62.8896 10.3898 63.0487 9.96551C63.2078 9.54127 63.2873 9.04695 63.2873 8.48255C63.2873 7.91816 63.2078 7.42763 63.0487 7.01096C62.8934 6.5943 62.6623 6.27043 62.3555 6.03937C62.0525 5.80831 61.6794 5.69278 61.2362 5.69278C60.7779 5.69278 60.3953 5.8121 60.0885 6.05074C59.7816 6.28937 59.5506 6.61892 59.3953 7.03937C59.24 7.45983 59.1623 7.94089 59.1623 8.48255C59.1623 9.02801 59.24 9.51475 59.3953 9.94278C59.5544 10.367 59.7873 10.7023 60.0941 10.9485C60.4048 11.1909 60.7854 11.3121 61.2362 11.3121ZM70.4055 13.0166C69.5305 13.0166 68.7748 12.8348 68.1384 12.4712C67.5058 12.1038 67.0191 11.5848 66.6782 10.9144C66.3373 10.2401 66.1668 9.44657 66.1668 8.53369C66.1668 7.63596 66.3373 6.84809 66.6782 6.17005C67.0229 5.48824 67.5039 4.95793 68.1214 4.57915C68.7388 4.19657 69.4642 4.00528 70.2975 4.00528C70.8354 4.00528 71.343 4.0924 71.8202 4.26665C72.3013 4.4371 72.7255 4.70225 73.093 5.0621C73.4642 5.42195 73.7558 5.88028 73.968 6.4371C74.1801 6.99013 74.2861 7.64922 74.2861 8.41437V9.04505H67.1327V7.65869H72.3145C72.3108 7.26475 72.2255 6.91437 72.0589 6.60755C71.8922 6.29695 71.6592 6.05263 71.36 5.8746C71.0645 5.69657 70.7198 5.60755 70.3259 5.60755C69.9055 5.60755 69.5361 5.70983 69.218 5.91437C68.8998 6.11513 68.6517 6.38028 68.4736 6.70983C68.2994 7.03559 68.2104 7.39354 68.2066 7.78369V8.99392C68.2066 9.50149 68.2994 9.9371 68.485 10.3007C68.6706 10.6606 68.9301 10.9371 69.2634 11.1303C69.5967 11.3197 69.9869 11.4144 70.4339 11.4144C70.7331 11.4144 71.0039 11.3727 71.2464 11.2894C71.4888 11.2023 71.699 11.0754 71.877 10.9087C72.0551 10.742 72.1895 10.5356 72.2805 10.2894L74.2009 10.5053C74.0797 11.0129 73.8486 11.456 73.5077 11.8348C73.1706 12.2098 72.7388 12.5015 72.2123 12.7098C71.6858 12.9144 71.0835 13.0166 70.4055 13.0166ZM80.1318 1.20983V12.8462H78.0749V1.20983H80.1318ZM82.7073 1.20983V5.49392H81.1391V1.20983H82.7073ZM86.2444 13.0223C85.6914 13.0223 85.1933 12.9238 84.7501 12.7269C84.3107 12.5261 83.9622 12.2307 83.7047 11.8405C83.4509 11.4504 83.324 10.9693 83.324 10.3973C83.324 9.9049 83.4149 9.49771 83.5967 9.17574C83.7785 8.85377 84.0266 8.59619 84.341 8.40301C84.6554 8.20983 85.0096 8.06399 85.4035 7.96551C85.8012 7.86324 86.2122 7.78937 86.6365 7.74392C87.1478 7.69089 87.5626 7.64354 87.8808 7.60187C88.199 7.55642 88.43 7.48824 88.574 7.39733C88.7217 7.30263 88.7956 7.1568 88.7956 6.95983V6.92574C88.7956 6.49771 88.6687 6.16627 88.4149 5.93142C88.1611 5.69657 87.7956 5.57915 87.3183 5.57915C86.8145 5.57915 86.4149 5.68899 86.1194 5.90869C85.8278 6.12839 85.6308 6.38786 85.5285 6.6871L83.6081 6.41437C83.7596 5.88407 84.0096 5.44089 84.3581 5.08483C84.7065 4.72498 85.1327 4.45604 85.6365 4.27801C86.1403 4.09619 86.6971 4.00528 87.3069 4.00528C87.7274 4.00528 88.1459 4.05452 88.5626 4.15301C88.9793 4.25149 89.36 4.41437 89.7047 4.64165C90.0494 4.86513 90.3259 5.17005 90.5342 5.55642C90.7463 5.94278 90.8524 6.42574 90.8524 7.00528V12.8462H88.8751V11.6473H88.8069C88.6819 11.8898 88.5058 12.117 88.2785 12.3291C88.055 12.5375 87.7728 12.706 87.4319 12.8348C87.0948 12.9598 86.699 13.0223 86.2444 13.0223ZM86.7785 11.511C87.1914 11.511 87.5494 11.4295 87.8524 11.2666C88.1554 11.1 88.3884 10.8803 88.5512 10.6076C88.7179 10.3348 88.8012 10.0375 88.8012 9.71551V8.6871C88.7369 8.74013 88.627 8.78937 88.4717 8.83483C88.3202 8.88028 88.1497 8.92005 87.9603 8.95415C87.7709 8.98824 87.5834 9.01854 87.3978 9.04505C87.2122 9.07157 87.0512 9.0943 86.9149 9.11324C86.6081 9.1549 86.3334 9.22309 86.091 9.31778C85.8486 9.41248 85.6573 9.54505 85.5172 9.71551C85.377 9.88218 85.3069 10.0981 85.3069 10.3632C85.3069 10.742 85.4452 11.028 85.7217 11.2212C85.9982 11.4144 86.3505 11.511 86.7785 11.511ZM91.9606 12.8462V4.11892H93.9549V5.57346H94.0458C94.2049 5.06968 94.4776 4.68142 94.864 4.40869C95.2541 4.13218 95.6992 3.99392 96.1992 3.99392C96.3128 3.99392 96.4397 3.9996 96.5799 4.01096C96.7238 4.01854 96.8431 4.0318 96.9378 4.05074V5.94278C96.8507 5.91248 96.7125 5.88596 96.5231 5.86324C96.3375 5.83672 96.1575 5.82346 95.9833 5.82346C95.6083 5.82346 95.2712 5.9049 94.9719 6.06778C94.6765 6.22687 94.4435 6.44846 94.2731 6.73255C94.1026 7.01665 94.0174 7.3443 94.0174 7.71551V12.8462H91.9606ZM102.171 4.11892V5.70983H97.154V4.11892H102.171ZM98.3926 2.02801H100.449V10.2212C100.449 10.4977 100.491 10.7098 100.574 10.8576C100.662 11.0015 100.775 11.1 100.915 11.153C101.055 11.206 101.211 11.2326 101.381 11.2326C101.51 11.2326 101.627 11.2231 101.734 11.2041C101.843 11.1852 101.927 11.1682 101.984 11.153L102.33 12.761C102.22 12.7988 102.063 12.8405 101.859 12.886C101.658 12.9314 101.412 12.9579 101.12 12.9655C100.605 12.9807 100.141 12.903 99.7278 12.7326C99.315 12.5583 98.9873 12.2894 98.7449 11.9257C98.5062 11.5621 98.3888 11.1076 98.3926 10.5621V2.02801ZM105.176 7.73255V12.8462H103.119V1.20983H105.13V5.60187H105.232C105.437 5.10945 105.753 4.72119 106.181 4.4371C106.613 4.14922 107.162 4.00528 107.829 4.00528C108.435 4.00528 108.963 4.13218 109.414 4.38596C109.865 4.63975 110.213 5.01096 110.46 5.4996C110.71 5.98824 110.835 6.58483 110.835 7.28937V12.8462H108.778V7.60755C108.778 7.02043 108.626 6.56399 108.323 6.23824C108.024 5.90869 107.604 5.74392 107.062 5.74392C106.698 5.74392 106.372 5.82346 106.085 5.98255C105.801 6.13786 105.577 6.36324 105.414 6.65869C105.255 6.95415 105.176 7.3121 105.176 7.73255ZM111.971 12.8462V4.11892H113.966V5.57346H114.056C114.216 5.06968 114.488 4.68142 114.875 4.40869C115.265 4.13218 115.71 3.99392 116.21 3.99392C116.323 3.99392 116.45 3.9996 116.591 4.01096C116.734 4.01854 116.854 4.0318 116.948 4.05074V5.94278C116.861 5.91248 116.723 5.88596 116.534 5.86324C116.348 5.83672 116.168 5.82346 115.994 5.82346C115.619 5.82346 115.282 5.9049 114.983 6.06778C114.687 6.22687 114.454 6.44846 114.284 6.73255C114.113 7.01665 114.028 7.3443 114.028 7.71551V12.8462H111.971ZM117.355 12.8462V4.11892H119.412V12.8462H117.355ZM118.389 2.88028C118.063 2.88028 117.783 2.77233 117.548 2.55642C117.313 2.33672 117.196 2.07346 117.196 1.76665C117.196 1.45604 117.313 1.19278 117.548 0.976872C117.783 0.757176 118.063 0.647327 118.389 0.647327C118.719 0.647327 118.999 0.757176 119.23 0.976872C119.465 1.19278 119.582 1.45604 119.582 1.76665C119.582 2.07346 119.465 2.33672 119.23 2.55642C118.999 2.77233 118.719 2.88028 118.389 2.88028ZM124.925 4.11892V5.70983H119.908V4.11892H124.925ZM121.146 2.02801H123.203V10.2212C123.203 10.4977 123.245 10.7098 123.328 10.8576C123.415 11.0015 123.529 11.1 123.669 11.153C123.809 11.206 123.965 11.2326 124.135 11.2326C124.264 11.2326 124.381 11.2231 124.487 11.2041C124.597 11.1852 124.68 11.1682 124.737 11.153L125.084 12.761C124.974 12.7988 124.817 12.8405 124.612 12.886C124.412 12.9314 124.165 12.9579 123.874 12.9655C123.358 12.9807 122.894 12.903 122.482 12.7326C122.069 12.5583 121.741 12.2894 121.499 11.9257C121.26 11.5621 121.143 11.1076 121.146 10.5621V2.02801ZM129.455 13.0166C128.58 13.0166 127.824 12.8348 127.188 12.4712C126.555 12.1038 126.068 11.5848 125.728 10.9144C125.387 10.2401 125.216 9.44657 125.216 8.53369C125.216 7.63596 125.387 6.84809 125.728 6.17005C126.072 5.48824 126.553 4.95793 127.171 4.57915C127.788 4.19657 128.514 4.00528 129.347 4.00528C129.885 4.00528 130.392 4.0924 130.87 4.26665C131.351 4.4371 131.775 4.70225 132.142 5.0621C132.514 5.42195 132.805 5.88028 133.017 6.4371C133.229 6.99013 133.336 7.64922 133.336 8.41437V9.04505H126.182V7.65869H131.364C131.36 7.26475 131.275 6.91437 131.108 6.60755C130.942 6.29695 130.709 6.05263 130.409 5.8746C130.114 5.69657 129.769 5.60755 129.375 5.60755C128.955 5.60755 128.586 5.70983 128.267 5.91437C127.949 6.11513 127.701 6.38028 127.523 6.70983C127.349 7.03559 127.26 7.39354 127.256 7.78369V8.99392C127.256 9.50149 127.349 9.9371 127.534 10.3007C127.72 10.6606 127.979 10.9371 128.313 11.1303C128.646 11.3197 129.036 11.4144 129.483 11.4144C129.782 11.4144 130.053 11.3727 130.296 11.2894C130.538 11.2023 130.748 11.0754 130.926 10.9087C131.104 10.742 131.239 10.5356 131.33 10.2894L133.25 10.5053C133.129 11.0129 132.898 11.456 132.557 11.8348C132.22 12.2098 131.788 12.5015 131.262 12.7098C130.735 12.9144 130.133 13.0166 129.455 13.0166Z" fill="#333333"/>
</svg>
